<?xml version="1.0" encoding="UTF-8" standalone="no"?>
<!-- Created with Inkscape (http://www.inkscape.org/) -->
<svg width="14.572913mm" height="9.6662521mm" viewBox="0 0 14.572913 9.6662521" version="1.1" id="svg1" inkscape:version="1.3.2 (091e20ef0f, 2023-11-25, custom)" sodipodi:docname="logo-symbol-only.svg" xmlns:inkscape="http://www.inkscape.org/namespaces/inkscape" xmlns:sodipodi="http://sodipodi.sourceforge.net/DTD/sodipodi-0.dtd" xmlns="http://www.w3.org/2000/svg" xmlns:svg="http://www.w3.org/2000/svg">
  <sodipodi:namedview id="namedview1" pagecolor="#ffffff" bordercolor="#000000" borderopacity="0.25" inkscape:showpageshadow="2" inkscape:pageopacity="0.0" inkscape:pagecheckerboard="false" inkscape:deskcolor="#d1d1d1" inkscape:document-units="mm" inkscape:zoom="0.71179153" inkscape:cx="154.53963" inkscape:cy="69.542834" inkscape:window-width="1465" inkscape:window-height="750" inkscape:window-x="273" inkscape:window-y="53" inkscape:window-maximized="0" inkscape:current-layer="layer1"/>
  <defs id="defs1">
    <linearGradient x1="0" y1="0" x2="1" y2="0" gradientUnits="userSpaceOnUse" gradientTransform="matrix(23.051534,-31.613532,31.613532,23.051534,91.170454,103.36392)" spreadMethod="pad" id="linearGradient2403">
      <stop style="stop-opacity:1;stop-color:#f76426" offset="0" id="stop2400"/>
      <stop style="stop-opacity:1;stop-color:#f76426" offset="0.0042106" id="stop2401"/>
      <stop style="stop-opacity:1;stop-color:#f28157" offset="0.73430965" id="stop2402"/>
      <stop style="stop-opacity:1;stop-color:#f28157" offset="1" id="stop2403"/>
    </linearGradient>
    <clipPath clipPathUnits="userSpaceOnUse" id="clipPath2405">
      <path d="M 0,4785 H 1440 V 0 H 0 Z" transform="translate(-226.01751,-4750.0626)" id="path2405"/>
    </clipPath>
    <clipPath clipPathUnits="userSpaceOnUse" id="clipPath2413">
      <path d="M 0,4785 H 1440 V 0 H 0 Z" transform="translate(-268.5772,-4762.065)" id="path2413"/>
    </clipPath>
    <linearGradient x1="0" y1="0" x2="1" y2="0" gradientUnits="userSpaceOnUse" gradientTransform="matrix(23.051534,-31.613532,31.613532,23.051534,65.280052,160.76636)" spreadMethod="pad" id="linearGradient2403-5">
      <stop style="stop-opacity:1;stop-color:#f76426" offset="0" id="stop2400-6"/>
      <stop style="stop-opacity:1;stop-color:#f76426" offset="0.0042106" id="stop2401-2"/>
      <stop style="stop-opacity:1;stop-color:#f28157" offset="0.73430965" id="stop2402-9"/>
      <stop style="stop-opacity:1;stop-color:#f28157" offset="1" id="stop2403-1"/>
    </linearGradient>
    <clipPath clipPathUnits="userSpaceOnUse" id="clipPath2405-2">
      <path d="M 0,4785 H 1440 V 0 H 0 Z" transform="translate(-226.01751,-4750.0626)" id="path2405-7"/>
    </clipPath>
    <clipPath clipPathUnits="userSpaceOnUse" id="clipPath2407">
      <path d="M 0,4785 H 1440 V 0 H 0 Z" transform="translate(-250.38861,-4754.4059)" id="path2407"/>
    </clipPath>
    <clipPath clipPathUnits="userSpaceOnUse" id="clipPath2409">
      <path d="M 0,4785 H 1440 V 0 H 0 Z" transform="translate(-147.331,-4762.1065)" id="path2409"/>
    </clipPath>
    <clipPath clipPathUnits="userSpaceOnUse" id="clipPath2411">
      <path d="M 0,4785 H 1440 V 0 H 0 Z" transform="translate(-205.82851,-4750.3556)" id="path2411"/>
    </clipPath>
    <clipPath clipPathUnits="userSpaceOnUse" id="clipPath2413-0">
      <path d="M 0,4785 H 1440 V 0 H 0 Z" transform="translate(-268.5772,-4762.065)" id="path2413-9"/>
    </clipPath>
    <clipPath clipPathUnits="userSpaceOnUse" id="clipPath2415">
      <path d="M 0,4785 H 1440 V 0 H 0 Z" transform="translate(-158.01291,-4751.6329)" id="path2415"/>
    </clipPath>
    <clipPath clipPathUnits="userSpaceOnUse" id="clipPath2417">
      <path d="M 0,4785 H 1440 V 0 H 0 Z" transform="translate(-122.4901,-4754.8668)" id="path2417"/>
    </clipPath>
    <clipPath clipPathUnits="userSpaceOnUse" id="clipPath2419">
      <path d="M 0,4785 H 1440 V 0 H 0 Z" transform="translate(-173.7396,-4762.1022)" id="path2419"/>
    </clipPath>
    <clipPath clipPathUnits="userSpaceOnUse" id="clipPath2421">
      <path d="M 0,4785 H 1440 V 0 H 0 Z" transform="translate(-188.24511,-4762.1031)" id="path2421"/>
    </clipPath>
  </defs>
  <g inkscape:label="Layer 1" inkscape:groupmode="layer" id="layer1" transform="translate(-78.090849,-130.16281)">
    <path id="path2403" d="m 91.998472,130.22357 c -1.536,0.1651 -3.07446,0.30656 -4.60587,0.50376 v 0 c -1.98861,0.25577 -3.9684,0.56727 -5.88715,1.17934 v 0 c -0.87842,0.27975 -1.72967,0.61701 -2.47368,1.1751 v 0 c -0.89923,0.67487 -1.1804,1.56492 -0.72849,2.50014 v 0 c 0.67063,1.38853 1.38748,2.75449 2.08104,4.13208 v 0 c 0.0688,0.13723 0.13723,0.14288 0.26176,0.0635 v 0 c 0.56903,-0.36336 1.09537,-0.78246 1.51906,-1.30386 v 0 c 0.23566,-0.28963 0.41169,-0.63712 0.56233,-0.98143 v 0 c 0.0801,-0.1838 0.0483,-0.41663 0.0702,-0.66111 v 0 c -0.26388,0.12101 -0.46002,0.23425 -0.67028,0.30375 v 0 c -0.73801,0.24482 -1.35466,-0.17181 -1.39276,-0.94474 v 0 c -0.0392,-0.79128 0.363,-1.35926 0.99377,-1.77236 v 0 c 0.57327,-0.37606 1.23508,-0.5521 1.88842,-0.7299 v 0 c 1.03505,-0.28081 2.08456,-0.51293 3.06176,-0.97296 v 0 c 0.0342,-0.0162 0.078,-0.0127 0.12453,-0.0194 v 0 c 0.008,0.0384 0.0201,0.0653 0.019,0.0917 v 0 c -0.0123,0.52423 -0.2346,0.95039 -0.67486,1.22379 v 0 c -0.43533,0.27058 -0.91158,0.47554 -1.35538,0.73448 v 0 c -0.22084,0.12841 -0.45085,0.28046 -0.60219,0.47837 v 0 c -0.28751,0.37606 -0.0617,0.81421 0.40817,0.81703 v 0 c 0.27904,0.004 0.56021,-0.0451 0.83784,-0.0896 v 0 c 0.20285,-0.0328 0.25612,-0.0162 0.21908,0.18909 v 0 c -0.0667,0.36512 -0.13582,0.73518 -0.25929,1.08373 v 0 c -0.13053,0.36724 -0.32597,0.7119 -0.49283,1.06645 v 0 c 1.42698,-0.004 5.3414,-2.32234 5.87551,-3.49003 v 0 c -0.067,0.0187 -0.12629,0.0363 -0.18627,0.0515 v 0 c -0.42792,0.10548 -0.8576,0.16087 -1.29822,0.0691 v 0 c -0.61771,-0.12877 -0.88794,-0.65582 -0.59902,-1.21215 v 0 c 0.26071,-0.502 0.70556,-0.81315 1.18887,-1.07703 v 0 c 0.83961,-0.45967 1.64147,-0.97155 2.26377,-1.7145 v 0 c 0.18662,-0.22296 0.34502,-0.46919 0.51647,-0.7045 v 0 c -0.0138,-0.0166 -0.0275,-0.0335 -0.0413,-0.0501 v 0 c -0.20814,0.0197 -0.41628,0.0381 -0.62406,0.0607" style="fill:url(#linearGradient2403-5);stroke:none;stroke-width:0.352778"/>
  </g>
</svg>