<?xml version="1.0" encoding="UTF-8" standalone="no"?><!DOCTYPE svg PUBLIC "-//W3C//DTD SVG 1.1//EN" "http://www.w3.org/Graphics/SVG/1.1/DTD/svg11.dtd"><svg width="100%" height="100%" viewBox="0 0 13246 13517" version="1.1" xmlns="http://www.w3.org/2000/svg" xmlns:xlink="http://www.w3.org/1999/xlink" xml:space="preserve" xmlns:serif="http://www.serif.com/" style="fill-rule:evenodd;clip-rule:evenodd;stroke-linejoin:round;stroke-miterlimit:2;"><path d="M2179.17,11229.2c-121.317,-161.375 -287.455,-424.459 -279.167,-537.5c40.279,-549.304 359.379,-810.713 370.833,-1004.17c2.25,-38.021 -214.3,-71.733 -283.333,-154.167c-118.054,-140.97 -374.304,-506.25 -425,-691.666c-38.492,-140.779 18.75,-330.555 120.833,-420.834c98.579,-87.179 493.117,-115.225 491.667,-120.833c-214.583,-829.167 -1779.17,-4854.17 -1779.17,-4854.17l-375,-1391.67l1512.5,1283.33l1637.5,1408.33l450,-1300l1016.67,850l850,-2083.33l887.5,-1770.83l216.667,-437.5l1287.5,3041.67l529.166,1479.17l983.334,-1000l437.5,1295.83l3379.17,-3075c0,0 -1953.47,5302.08 -2275,6387.5c-34.816,117.53 279.863,84.721 345.834,125c36.112,22.046 57.525,75.034 50,116.667c-20.834,115.279 -100.946,388.842 -175,575c-75.696,190.279 -220.834,467.363 -279.167,566.667c-12.933,22.016 -79.1,5.008 -70.833,29.166c36.112,105.555 220.22,417.005 287.5,604.167c68.316,190.05 99.304,356.25 120.833,491.667c16.796,105.654 27.083,216.666 8.333,320.833c-18.75,104.167 -68.75,211.113 -120.833,304.167c-51.825,92.596 -113.196,182.737 -191.667,254.166c-209.029,190.28 -687.5,640.28 -1062.5,887.5c-369.746,243.759 -774.308,436.45 -1187.5,595.834c-428.471,165.279 -1020.83,312.5 -1383.33,395.833c-259.396,59.633 -548.613,93.75 -791.667,104.167c-222.45,9.533 -448.071,0.658 -666.666,-41.667c-283.334,-54.862 -703.588,-149.321 -1033.33,-287.5c-364.583,-152.779 -820.833,-411.112 -1154.17,-629.167c-302.592,-197.945 -604.167,-459.72 -845.834,-679.166c-216.746,-196.813 -456.946,-441.667 -604.166,-637.5Z" style="fill:#fff;"/><g id="Flat"><path d="M7304.17,10875l479.166,-787.5l2766.67,-741.667l258.333,-666.666l-433.333,-258.334l1516.67,-4804.17l-3183.33,2583.33l-2137.5,-4729.17l-2329.17,4525l-2862.5,-1933.33l1287.5,4541.67l-500,150l233.333,437.5l2883.33,879.166l725,720.834l1295.83,83.333Z" style="fill:#ffc552;"/><path d="M6000,10025l729.167,312.5l454.166,-216.667l308.334,-575l-20.834,-275l-775,-658.333l-500,241.667l-304.166,400l16.666,487.5l91.667,283.333Z" style="fill:#ff0904;"/></g><path id="Outline" d="M12766.7,2433.33l-3041.67,2750l-400,-1320.83l-975,979.167l-1762.5,-4379.17l-1920.83,4150l-945.834,-779.167l-391.666,1266.67l-2966.67,-2462.5l2037.5,5770.83c0,0 -461.804,102.78 -570.833,150c-48.092,20.829 -101.788,84.28 -83.334,133.334c54.863,145.833 275,599.304 412.5,741.666c99.013,102.513 412.5,112.5 412.5,112.5c0,0 -245.137,425.696 -316.666,629.167c-66.579,189.396 -188.788,405.971 -112.5,591.667c105.554,256.946 454.2,672.446 745.833,950c302.083,287.5 712.5,571.529 1066.67,775c331.925,190.691 694.625,326.446 1058.33,445.833c363.888,119.446 859.721,218.054 1125,270.833c153.3,30.5 311.088,60.875 466.667,45.834c229.862,-22.221 615.095,-91.792 912.5,-179.167c368.75,-108.333 902.083,-290.279 1300,-470.833c378.862,-171.909 772.916,-409.029 1087.5,-612.5c281.296,-181.942 625,-448.613 800,-608.334c105.895,-96.65 198.612,-253.47 250,-350c37.041,-69.579 54.395,-150.441 58.333,-229.166c4.862,-97.221 -6.325,-237.934 -29.167,-354.167c-23.612,-120.138 -68.758,-246.538 -112.5,-366.667c-49.304,-135.416 -136.112,-343.054 -183.333,-445.833c-27.55,-59.958 -100,-170.833 -100,-170.833c-0,-0 83.517,10.15 108.333,-16.667c43.054,-46.529 110.709,-169.696 150,-262.5c72.917,-172.221 287.5,-770.833 287.5,-770.833c0,-0 -507.208,-36.354 -487.5,-95.834c328.017,-989.904 2120.83,-5887.5 2120.83,-5887.5Zm-1104.17,1683.33l-3004.17,2416.67c0,0 -1670.14,-3679.17 -2033.33,-4441.67c-28.325,-59.467 -97.221,-131.946 -145.833,-133.334c-48.613,-1.387 -117.138,67.767 -145.834,125c-366.666,731.25 -2054.17,4262.5 -2054.17,4262.5c-0,0 -2106.95,-1622.92 -2558.33,-1954.17c-41.291,-30.305 -125,-56.946 -150,-33.334c-25,23.613 -17.183,119.255 0,175c222.221,720.834 1121.53,3440.97 1333.33,4150c11.591,38.8 -23.742,92.442 -62.5,104.167c-82.638,25 -361.113,20.138 -433.334,45.833c-34.021,12.105 -12.291,74.38 0,108.334c14.584,40.279 37.017,116.675 87.5,133.333c484.029,159.721 2218.75,561.112 2816.67,825c329.754,145.533 572.35,619.533 770.833,758.333c116.534,81.496 575.159,84.888 575.159,84.888l-28.975,-374.084c-0,0 -227.175,-52.604 -299.35,-88.95c-120.405,-60.633 -342.225,-105.554 -439.746,-266.516c-97.525,-160.963 -140.413,-492.567 -82.888,-703.434c57.525,-210.866 304.463,-427.9 428.038,-561.758c89.446,-96.896 243.1,-171.275 313.408,-241.404c49.467,-49.346 164.6,-73.325 207.025,-16.458c44.633,59.825 149.033,94.175 214.129,152.97c98.379,88.855 268.775,249.617 376.129,380.138c102.48,124.596 261.8,248.825 268.001,403c6.199,154.175 -131.009,360.058 -230.792,522.054c-102.567,166.513 -267.275,421.021 -384.6,477.013c-55.025,26.258 -369.354,-56.655 -369.354,-56.655l28.975,374.084c-0,-0 497.45,62.437 595.216,-26.775c144.067,-131.459 447.717,-744.904 447.717,-744.904l1321.01,-327.967l1427.59,-411.775l166.925,-466.179c-0,-0 -211.042,-75.054 -277.704,-125.554c-57.259,-43.375 -142.438,-100.175 -122.271,-177.45c198.362,-760.038 1445.53,-4345.96 1445.53,-4345.96l0,0.009Zm-6291.67,8445.83c-1450,-397.917 -2928.52,-1624.77 -2854.49,-1953.91c66.313,-294.829 380.271,-942.432 836.834,-915.465c484.401,28.61 1238.5,154.604 1744.18,454.736c467.687,277.58 729.447,803.284 919.311,856.302c159.295,44.482 407.379,18.883 616.666,20.833c223.613,2.083 532.638,11.804 675,-20.833c81.371,-18.655 182.781,-109.628 208.334,-145.834c84.875,-120.261 190.735,-536.591 596.118,-718.851c197.746,-88.906 2007.17,-658.73 2227.05,-313.651c165.157,259.198 526.318,960.486 -101.658,1479.56c-349.856,289.184 -1280.77,763.665 -1600.68,907.111c-171.287,76.804 -1449.08,594.933 -2345.83,570.833c-263.599,-7.084 -635.041,-142.404 -920.834,-220.833Zm1341.67,-2333.33c-146.529,-28.471 -472.917,-113.888 -600,-266.667c-127.083,-152.779 -190.971,-472.917 -162.5,-650c28.063,-174.542 239.583,-325 333.333,-412.5c62.213,-58.063 151.388,-94.446 229.167,-112.5c77.129,-17.904 161.713,-18.763 237.5,4.167c82.638,25 179.838,85.695 258.333,145.833c86.113,65.971 193.75,164.583 258.334,250c58.816,77.787 128.587,164.983 129.166,262.5c0.696,116.667 -57.637,323.612 -125,437.5c-63.12,106.721 -186.112,188.887 -279.166,245.833c-83.921,51.354 -182.588,114.6 -279.167,95.834Z"/></svg>